<?xml version="1.0" encoding="UTF-8" standalone="no"?>
<!DOCTYPE svg PUBLIC "-//W3C//DTD SVG 1.1//EN"
 "http://www.w3.org/Graphics/SVG/1.1/DTD/svg11.dtd">
<!-- Generated by graphviz version 2.38.0 (20140413.2041)
 -->
<!-- Title: %3 Pages: 1 -->
<svg width="583pt" height="359pt"
 viewBox="0.00 0.00 582.87 358.64" xmlns="http://www.w3.org/2000/svg" xmlns:xlink="http://www.w3.org/1999/xlink">
<g id="graph0" class="graph" transform="scale(1 1) rotate(0) translate(4 354.644)">
<title>%3</title>
<polygon fill="white" stroke="none" points="-4,4 -4,-354.644 578.869,-354.644 578.869,4 -4,4"/>
<!-- 0 -->
<g id="node1" class="node"><title>0</title>
<ellipse fill="lightblue" stroke="lightblue" cx="318" cy="-288" rx="18" ry="18"/>
<text text-anchor="middle" x="318" y="-284.3" font-family="Times New Roman,serif" font-size="14.00">0</text>
</g>
<!-- 3 -->
<g id="node2" class="node"><title>3</title>
<ellipse fill="none" stroke="black" cx="370.468" cy="-190.074" rx="18" ry="18"/>
<text text-anchor="middle" x="370.468" y="-186.374" font-family="Times New Roman,serif" font-size="14.00">3</text>
</g>
<!-- 11 -->
<g id="node3" class="node"><title>11</title>
<ellipse fill="none" stroke="black" cx="390.782" cy="-271.453" rx="19.4965" ry="19.4965"/>
<text text-anchor="middle" x="390.782" y="-267.753" font-family="Times New Roman,serif" font-size="14.00">11</text>
</g>
<!-- 3&#45;&gt;11 -->
<g id="edge1" class="edge"><title>3&#45;&gt;11</title>
<path fill="none" stroke="black" d="M369.251,-208.29C370.753,-219.12 373.933,-233.036 377.546,-245.051"/>
<polygon fill="black" stroke="black" points="374.229,-246.166 380.657,-254.588 380.884,-243.996 374.229,-246.166"/>
</g>
<!-- 3&#45;&gt;11 -->
<g id="edge4" class="edge"><title>3&#45;&gt;11</title>
<path fill="none" stroke="black" d="M380.104,-205.581C383.868,-215.847 387.601,-229.624 390.058,-241.928"/>
<polygon fill="black" stroke="black" points="386.616,-242.565 391.794,-251.808 393.51,-241.353 386.616,-242.565"/>
</g>
<!-- 6 -->
<g id="node4" class="node"><title>6</title>
<ellipse fill="none" stroke="black" cx="456.365" cy="-130.849" rx="18" ry="18"/>
<text text-anchor="middle" x="456.365" y="-127.149" font-family="Times New Roman,serif" font-size="14.00">6</text>
</g>
<!-- 6&#45;&gt;3 -->
<g id="edge8" class="edge"><title>6&#45;&gt;3</title>
<path fill="none" stroke="black" d="M441.403,-141.166C428.304,-150.197 409.054,-163.47 393.911,-173.911"/>
<polygon fill="black" stroke="black" points="391.793,-171.119 385.547,-179.677 395.767,-176.882 391.793,-171.119"/>
</g>
<!-- 13 -->
<g id="node5" class="node"><title>13</title>
<ellipse fill="none" stroke="black" cx="510.172" cy="-60.6049" rx="19.4965" ry="19.4965"/>
<text text-anchor="middle" x="510.172" y="-56.9049" font-family="Times New Roman,serif" font-size="14.00">13</text>
</g>
<!-- 6&#45;&gt;13 -->
<g id="edge2" class="edge"><title>6&#45;&gt;13</title>
<path fill="none" stroke="black" d="M467.514,-116.295C474.606,-107.036 483.954,-94.8322 492.091,-84.2094"/>
<polygon fill="black" stroke="black" points="494.989,-86.1825 498.291,-76.1155 489.431,-81.9258 494.989,-86.1825"/>
</g>
<!-- 4 -->
<g id="node7" class="node"><title>4</title>
<ellipse fill="none" stroke="black" cx="518.678" cy="-154.107" rx="18" ry="18"/>
<text text-anchor="middle" x="518.678" y="-150.407" font-family="Times New Roman,serif" font-size="14.00">4</text>
</g>
<!-- 6&#45;&gt;4 -->
<g id="edge5" class="edge"><title>6&#45;&gt;4</title>
<path fill="none" stroke="black" d="M470.318,-142.449C476.283,-145.4 483.461,-148.319 490.443,-150.682"/>
<polygon fill="black" stroke="black" points="489.784,-154.139 500.369,-153.684 491.81,-147.439 489.784,-154.139"/>
</g>
<!-- 8 -->
<g id="node6" class="node"><title>8</title>
<ellipse fill="none" stroke="black" cx="556.869" cy="-18" rx="18" ry="18"/>
<text text-anchor="middle" x="556.869" y="-14.3" font-family="Times New Roman,serif" font-size="14.00">8</text>
</g>
<!-- 13&#45;&gt;8 -->
<g id="edge3" class="edge"><title>13&#45;&gt;8</title>
<path fill="none" stroke="black" d="M528.12,-52.6445C532.475,-49.3136 537.08,-45.3264 541.316,-41.2463"/>
<polygon fill="black" stroke="black" points="543.966,-43.5411 548.41,-33.9233 538.938,-38.6707 543.966,-43.5411"/>
</g>
<!-- 13&#45;&gt;8 -->
<g id="edge13" class="edge"><title>13&#45;&gt;8</title>
<path fill="none" stroke="black" d="M519.741,-43.4605C523.456,-39.4277 527.847,-35.207 532.298,-31.3617"/>
<polygon fill="black" stroke="black" points="534.645,-33.9652 540.239,-24.9674 530.255,-28.5131 534.645,-33.9652"/>
</g>
<!-- 4&#45;&gt;6 -->
<g id="edge7" class="edge"><title>4&#45;&gt;6</title>
<path fill="none" stroke="black" d="M504.725,-142.508C498.76,-139.557 491.582,-136.637 484.6,-134.275"/>
<polygon fill="black" stroke="black" points="485.26,-130.818 474.675,-131.273 483.233,-137.518 485.26,-130.818"/>
</g>
<!-- 15 -->
<g id="node8" class="node"><title>15</title>
<ellipse fill="none" stroke="black" cx="390.78" cy="-109.498" rx="19.4965" ry="19.4965"/>
<text text-anchor="middle" x="390.78" y="-105.798" font-family="Times New Roman,serif" font-size="14.00">15</text>
</g>
<!-- 9 -->
<g id="node9" class="node"><title>9</title>
<ellipse fill="none" stroke="black" cx="228" cy="-109.498" rx="18" ry="18"/>
<text text-anchor="middle" x="228" y="-105.798" font-family="Times New Roman,serif" font-size="14.00">9</text>
</g>
<!-- 15&#45;&gt;9 -->
<g id="edge6" class="edge"><title>15&#45;&gt;9</title>
<path fill="none" stroke="black" d="M371.145,-109.498C342.579,-109.498 289.394,-109.498 256.512,-109.498"/>
<polygon fill="black" stroke="black" points="256.204,-105.998 246.204,-109.498 256.204,-112.998 256.204,-105.998"/>
</g>
<!-- 5 -->
<g id="node10" class="node"><title>5</title>
<ellipse fill="none" stroke="black" cx="18" cy="-65.1093" rx="18" ry="18"/>
<text text-anchor="middle" x="18" y="-61.4093" font-family="Times New Roman,serif" font-size="14.00">5</text>
</g>
<!-- 1 -->
<g id="node11" class="node"><title>1</title>
<ellipse fill="none" stroke="black" cx="36.9481" cy="-120.547" rx="18" ry="18"/>
<text text-anchor="middle" x="36.9481" y="-116.847" font-family="Times New Roman,serif" font-size="14.00">1</text>
</g>
<!-- 5&#45;&gt;1 -->
<g id="edge9" class="edge"><title>5&#45;&gt;1</title>
<path fill="none" stroke="black" d="M23.8914,-82.3461C25.151,-86.0311 26.5096,-90.006 27.8578,-93.9506"/>
<polygon fill="black" stroke="black" points="24.5792,-95.1803 31.1254,-103.511 31.203,-92.9163 24.5792,-95.1803"/>
</g>
<!-- 2 -->
<g id="node12" class="node"><title>2</title>
<ellipse fill="none" stroke="black" cx="268.57" cy="-188.077" rx="18" ry="18"/>
<text text-anchor="middle" x="268.57" y="-184.377" font-family="Times New Roman,serif" font-size="14.00">2</text>
</g>
<!-- 2&#45;&gt;3 -->
<g id="edge10" class="edge"><title>2&#45;&gt;3</title>
<path fill="none" stroke="black" d="M286.788,-188.434C302.147,-188.735 324.389,-189.171 342.083,-189.518"/>
<polygon fill="black" stroke="black" points="342.342,-193.023 352.409,-189.72 342.479,-186.025 342.342,-193.023"/>
</g>
<!-- 12 -->
<g id="node13" class="node"><title>12</title>
<ellipse fill="none" stroke="black" cx="92.1179" cy="-165.463" rx="19.4965" ry="19.4965"/>
<text text-anchor="middle" x="92.1179" y="-161.763" font-family="Times New Roman,serif" font-size="14.00">12</text>
</g>
<!-- 12&#45;&gt;1 -->
<g id="edge11" class="edge"><title>12&#45;&gt;1</title>
<path fill="none" stroke="black" d="M76.7501,-152.951C71.2263,-148.454 64.8834,-143.29 58.9083,-138.426"/>
<polygon fill="black" stroke="black" points="61.0644,-135.668 51.0997,-132.068 56.6448,-141.096 61.0644,-135.668"/>
</g>
<!-- 7 -->
<g id="node14" class="node"><title>7</title>
<ellipse fill="none" stroke="black" cx="174.611" cy="-183.33" rx="18" ry="18"/>
<text text-anchor="middle" x="174.611" y="-179.63" font-family="Times New Roman,serif" font-size="14.00">7</text>
</g>
<!-- 7&#45;&gt;2 -->
<g id="edge15" class="edge"><title>7&#45;&gt;2</title>
<path fill="none" stroke="black" d="M192.727,-184.245C206.246,-184.928 224.97,-185.874 240.431,-186.655"/>
<polygon fill="black" stroke="black" points="240.346,-190.155 250.51,-187.164 240.699,-183.164 240.346,-190.155"/>
</g>
<!-- 7&#45;&gt;12 -->
<g id="edge12" class="edge"><title>7&#45;&gt;12</title>
<path fill="none" stroke="black" d="M156.711,-179.453C146.376,-177.215 133.124,-174.345 121.317,-171.787"/>
<polygon fill="black" stroke="black" points="121.936,-168.34 111.421,-169.644 120.454,-175.182 121.936,-168.34"/>
</g>
<!-- 10 -->
<g id="node15" class="node"><title>10</title>
<ellipse fill="none" stroke="black" cx="405.735" cy="-331.146" rx="19.4965" ry="19.4965"/>
<text text-anchor="middle" x="405.735" y="-327.446" font-family="Times New Roman,serif" font-size="14.00">10</text>
</g>
<!-- 10&#45;&gt;11 -->
<g id="edge14" class="edge"><title>10&#45;&gt;11</title>
<path fill="none" stroke="black" d="M400.921,-311.93C400.014,-308.309 399.047,-304.447 398.084,-300.601"/>
<polygon fill="black" stroke="black" points="401.412,-299.483 395.587,-290.633 394.621,-301.184 401.412,-299.483"/>
</g>
</g>
</svg>
