<?xml version="1.0" encoding="UTF-8" standalone="no"?>
<!DOCTYPE svg PUBLIC "-//W3C//DTD SVG 1.1//EN"
 "http://www.w3.org/Graphics/SVG/1.1/DTD/svg11.dtd">
<!-- Generated by graphviz version 2.38.0 (20140413.2041)
 -->
<!-- Title: %3 Pages: 1 -->
<svg width="413pt" height="92pt"
 viewBox="0.00 0.00 413.25 92.00" xmlns="http://www.w3.org/2000/svg" xmlns:xlink="http://www.w3.org/1999/xlink">
<g id="graph0" class="graph" transform="scale(1 1) rotate(0) translate(4 88)">
<title>%3</title>
<polygon fill="white" stroke="none" points="-4,4 -4,-88 409.253,-88 409.253,4 -4,4"/>
<!-- 1 -->
<g id="node1" class="node"><title>1</title>
<ellipse fill="none" stroke="black" cx="378.253" cy="-18" rx="27" ry="18"/>
<text text-anchor="middle" x="378.253" y="-14.3" font-family="Times New Roman,serif" font-size="14.00">1</text>
</g>
<!-- 2 -->
<g id="node2" class="node"><title>2</title>
<ellipse fill="none" stroke="black" cx="203.113" cy="-18" rx="27" ry="18"/>
<text text-anchor="middle" x="203.113" y="-14.3" font-family="Times New Roman,serif" font-size="14.00">2</text>
</g>
<!-- 1&#45;&gt;2 -->
<g id="edge1" class="edge"><title>1&#45;&gt;2</title>
<path fill="none" stroke="black" d="M352.033,-13.0175C322.153,-10.8887 273.125,-10.6829 239.543,-12.4001"/>
<polygon fill="black" stroke="black" points="238.996,-8.92668 229.226,-13.0252 239.419,-15.9139 238.996,-8.92668"/>
</g>
<!-- 2&#45;&gt;1 -->
<g id="edge2" class="edge"><title>2&#45;&gt;1</title>
<path fill="none" stroke="black" d="M229.333,-22.9825C259.212,-25.1113 308.241,-25.3171 341.823,-23.5999"/>
<polygon fill="black" stroke="black" points="342.37,-27.0733 352.14,-22.9748 341.946,-20.0861 342.37,-27.0733"/>
</g>
<!-- 3 -->
<g id="node3" class="node"><title>3</title>
<ellipse fill="none" stroke="black" cx="27" cy="-18" rx="27" ry="18"/>
<text text-anchor="middle" x="27" y="-14.3" font-family="Times New Roman,serif" font-size="14.00">3</text>
</g>
<!-- 2&#45;&gt;3 -->
<g id="edge3" class="edge"><title>2&#45;&gt;3</title>
<path fill="none" stroke="black" d="M175.981,-18C146.118,-18 97.9189,-18 64.4644,-18"/>
<polygon fill="black" stroke="black" points="64.1625,-14.4999 54.1625,-18 64.1626,-21.4999 64.1625,-14.4999"/>
</g>
<!-- 12 -->
<g id="node4" class="node"><title>12</title>
<ellipse fill="lightblue" stroke="lightblue" cx="279" cy="-66" rx="27" ry="18"/>
<text text-anchor="middle" x="279" y="-62.3" font-family="Times New Roman,serif" font-size="14.00">12</text>
</g>
</g>
</svg>
