<?xml version="1.0" encoding="UTF-8" standalone="no"?>
<!DOCTYPE svg PUBLIC "-//W3C//DTD SVG 1.1//EN"
 "http://www.w3.org/Graphics/SVG/1.1/DTD/svg11.dtd">
<!-- Generated by graphviz version 2.38.0 (20140413.2041)
 -->
<!-- Title: %3 Pages: 1 -->
<svg width="525pt" height="343pt"
 viewBox="0.00 0.00 525.22 343.13" xmlns="http://www.w3.org/2000/svg" xmlns:xlink="http://www.w3.org/1999/xlink">
<g id="graph0" class="graph" transform="scale(1 1) rotate(0) translate(4 339.132)">
<title>%3</title>
<polygon fill="white" stroke="none" points="-4,4 -4,-339.132 521.216,-339.132 521.216,4 -4,4"/>
<!-- 1 -->
<g id="node1" class="node"><title>1</title>
<ellipse fill="none" stroke="black" cx="490.216" cy="-69.258" rx="27" ry="18"/>
<text text-anchor="middle" x="490.216" y="-65.558" font-family="Times New Roman,serif" font-size="14.00">1</text>
</g>
<!-- 2 -->
<g id="node2" class="node"><title>2</title>
<ellipse fill="none" stroke="black" cx="321.638" cy="-179.804" rx="27" ry="18"/>
<text text-anchor="middle" x="321.638" y="-176.104" font-family="Times New Roman,serif" font-size="14.00">2</text>
</g>
<!-- 1&#45;&gt;2 -->
<g id="edge1" class="edge"><title>1&#45;&gt;2</title>
<path fill="none" stroke="black" d="M470.878,-81.9391C441.107,-101.462 383.906,-138.972 349.617,-161.457"/>
<polygon fill="black" stroke="black" points="347.453,-158.691 341.01,-167.101 351.291,-164.544 347.453,-158.691"/>
</g>
<!-- 3 -->
<g id="node3" class="node"><title>3</title>
<ellipse fill="lightblue" stroke="lightblue" cx="489.927" cy="-242.345" rx="27" ry="18"/>
<text text-anchor="middle" x="489.927" y="-238.645" font-family="Times New Roman,serif" font-size="14.00">3</text>
</g>
<!-- 2&#45;&gt;3 -->
<g id="edge2" class="edge"><title>2&#45;&gt;3</title>
<path fill="none" stroke="black" d="M345.393,-188.632C374.46,-199.434 423.846,-217.788 456.677,-229.988"/>
<polygon fill="black" stroke="black" points="455.7,-233.359 466.293,-233.562 458.139,-226.798 455.7,-233.359"/>
</g>
<!-- 4 -->
<g id="node4" class="node"><title>4</title>
<ellipse fill="none" stroke="black" cx="175.966" cy="-224.705" rx="27" ry="18"/>
<text text-anchor="middle" x="175.966" y="-221.005" font-family="Times New Roman,serif" font-size="14.00">4</text>
</g>
<!-- 2&#45;&gt;4 -->
<g id="edge3" class="edge"><title>2&#45;&gt;4</title>
<path fill="none" stroke="black" d="M296.927,-187.421C273.174,-194.742 237.062,-205.873 210.476,-214.068"/>
<polygon fill="black" stroke="black" points="209.324,-210.761 200.799,-217.051 211.386,-217.45 209.324,-210.761"/>
</g>
<!-- 5 -->
<g id="node5" class="node"><title>5</title>
<ellipse fill="none" stroke="black" cx="218.206" cy="-18" rx="27" ry="18"/>
<text text-anchor="middle" x="218.206" y="-14.3" font-family="Times New Roman,serif" font-size="14.00">5</text>
</g>
<!-- 2&#45;&gt;5 -->
<g id="edge4" class="edge"><title>2&#45;&gt;5</title>
<path fill="none" stroke="black" d="M310.959,-163.098C292.842,-134.757 255.973,-77.0817 234.578,-43.6119"/>
<polygon fill="black" stroke="black" points="237.317,-41.3985 228.982,-34.858 231.419,-45.1687 237.317,-41.3985"/>
</g>
<!-- 6 -->
<g id="node6" class="node"><title>6</title>
<ellipse fill="none" stroke="black" cx="139.713" cy="-317.132" rx="27" ry="18"/>
<text text-anchor="middle" x="139.713" y="-313.432" font-family="Times New Roman,serif" font-size="14.00">6</text>
</g>
<!-- 6&#45;&gt;2 -->
<g id="edge5" class="edge"><title>6&#45;&gt;2</title>
<path fill="none" stroke="black" d="M157.822,-303.463C190.105,-279.094 257.721,-228.053 295.203,-199.759"/>
<polygon fill="black" stroke="black" points="297.73,-202.237 303.603,-193.419 293.513,-196.65 297.73,-202.237"/>
</g>
<!-- 7 -->
<g id="node7" class="node"><title>7</title>
<ellipse fill="none" stroke="black" cx="27" cy="-198.382" rx="27" ry="18"/>
<text text-anchor="middle" x="27" y="-194.682" font-family="Times New Roman,serif" font-size="14.00">7</text>
</g>
<!-- 6&#45;&gt;7 -->
<g id="edge6" class="edge"><title>6&#45;&gt;7</title>
<path fill="none" stroke="black" d="M124.978,-301.608C105.571,-281.161 71.2842,-245.038 48.8529,-221.405"/>
<polygon fill="black" stroke="black" points="51.1618,-218.754 41.7389,-213.91 46.0847,-223.573 51.1618,-218.754"/>
</g>
<!-- 7&#45;&gt;4 -->
<g id="edge7" class="edge"><title>7&#45;&gt;4</title>
<path fill="none" stroke="black" d="M53.2893,-203.027C77.254,-207.262 112.884,-213.558 139.579,-218.275"/>
<polygon fill="black" stroke="black" points="139.233,-221.768 149.69,-220.062 140.451,-214.875 139.233,-221.768"/>
</g>
<!-- 8 -->
<g id="node8" class="node"><title>8</title>
<ellipse fill="none" stroke="black" cx="50.3505" cy="-25.5708" rx="27" ry="18"/>
<text text-anchor="middle" x="50.3505" y="-21.8708" font-family="Times New Roman,serif" font-size="14.00">8</text>
</g>
<!-- 8&#45;&gt;5 -->
<g id="edge9" class="edge"><title>8&#45;&gt;5</title>
<path fill="none" stroke="black" d="M77.3194,-24.3544C105.378,-23.0889 149.52,-21.0979 180.91,-19.6821"/>
<polygon fill="black" stroke="black" points="181.193,-23.173 191.025,-19.2259 180.878,-16.1801 181.193,-23.173"/>
</g>
<!-- 8&#45;&gt;7 -->
<g id="edge8" class="edge"><title>8&#45;&gt;7</title>
<path fill="none" stroke="black" d="M47.8957,-43.738C43.8315,-73.8162 35.6746,-134.183 30.8418,-169.949"/>
<polygon fill="black" stroke="black" points="27.3276,-169.82 29.4569,-180.199 34.2645,-170.757 27.3276,-169.82"/>
</g>
</g>
</svg>
