<?xml version="1.0" encoding="UTF-8" standalone="no"?>
<!DOCTYPE svg PUBLIC "-//W3C//DTD SVG 1.1//EN"
 "http://www.w3.org/Graphics/SVG/1.1/DTD/svg11.dtd">
<!-- Generated by graphviz version 2.38.0 (20140413.2041)
 -->
<!-- Title: %3 Pages: 1 -->
<svg width="667pt" height="568pt"
 viewBox="0.00 0.00 666.58 568.24" xmlns="http://www.w3.org/2000/svg" xmlns:xlink="http://www.w3.org/1999/xlink">
<g id="graph0" class="graph" transform="scale(1 1) rotate(0) translate(4 564.244)">
<title>%3</title>
<polygon fill="white" stroke="none" points="-4,4 -4,-564.244 662.583,-564.244 662.583,4 -4,4"/>
<!-- 1 -->
<g id="node1" class="node"><title>1</title>
<ellipse fill="none" stroke="black" cx="218.79" cy="-90.7642" rx="27" ry="18"/>
<text text-anchor="middle" x="218.79" y="-87.0642" font-family="Times New Roman,serif" font-size="14.00">1</text>
</g>
<!-- 6 -->
<g id="node6" class="node"><title>6</title>
<ellipse fill="lightblue" stroke="lightblue" cx="353.44" cy="-126.434" rx="27" ry="18"/>
<text text-anchor="middle" x="353.44" y="-122.734" font-family="Times New Roman,serif" font-size="14.00">6</text>
</g>
<!-- 1&#45;&gt;6 -->
<g id="edge1" class="edge"><title>1&#45;&gt;6</title>
<path fill="none" stroke="black" d="M244.116,-97.4734C265.087,-103.029 295.108,-110.981 318.387,-117.148"/>
<polygon fill="black" stroke="black" points="317.664,-120.578 328.227,-119.755 319.457,-113.811 317.664,-120.578"/>
</g>
<!-- 2 -->
<g id="node2" class="node"><title>2</title>
<ellipse fill="none" stroke="black" cx="106.655" cy="-129.263" rx="27" ry="18"/>
<text text-anchor="middle" x="106.655" y="-125.563" font-family="Times New Roman,serif" font-size="14.00">2</text>
</g>
<!-- 2&#45;&gt;1 -->
<g id="edge2" class="edge"><title>2&#45;&gt;1</title>
<path fill="none" stroke="black" d="M130.711,-121.004C146.526,-115.574 167.453,-108.389 184.94,-102.386"/>
<polygon fill="black" stroke="black" points="186.452,-105.567 194.774,-99.0095 184.179,-98.9464 186.452,-105.567"/>
</g>
<!-- 3 -->
<g id="node3" class="node"><title>3</title>
<ellipse fill="none" stroke="black" cx="50.5206" cy="-236.521" rx="27" ry="18"/>
<text text-anchor="middle" x="50.5206" y="-232.821" font-family="Times New Roman,serif" font-size="14.00">3</text>
</g>
<!-- 2&#45;&gt;3 -->
<g id="edge3" class="edge"><title>2&#45;&gt;3</title>
<path fill="none" stroke="black" d="M97.6359,-146.496C88.6337,-163.697 74.6816,-190.356 64.2933,-210.205"/>
<polygon fill="black" stroke="black" points="61.0531,-208.848 59.5172,-219.331 67.2551,-212.094 61.0531,-208.848"/>
</g>
<!-- 4 -->
<g id="node4" class="node"><title>4</title>
<ellipse fill="none" stroke="black" cx="27" cy="-342.275" rx="27" ry="18"/>
<text text-anchor="middle" x="27" y="-338.575" font-family="Times New Roman,serif" font-size="14.00">4</text>
</g>
<!-- 3&#45;&gt;4 -->
<g id="edge4" class="edge"><title>3&#45;&gt;4</title>
<path fill="none" stroke="black" d="M46.5307,-254.461C42.8813,-270.869 37.4251,-295.401 33.2065,-314.369"/>
<polygon fill="black" stroke="black" points="29.7641,-313.726 31.0095,-324.247 36.5972,-315.245 29.7641,-313.726"/>
</g>
<!-- 7 -->
<g id="node7" class="node"><title>7</title>
<ellipse fill="none" stroke="black" cx="92.6491" cy="-317.501" rx="27" ry="18"/>
<text text-anchor="middle" x="92.6491" y="-313.801" font-family="Times New Roman,serif" font-size="14.00">7</text>
</g>
<!-- 3&#45;&gt;7 -->
<g id="edge5" class="edge"><title>3&#45;&gt;7</title>
<path fill="none" stroke="black" d="M59.455,-253.695C65.1521,-264.646 72.645,-279.049 79.07,-291.399"/>
<polygon fill="black" stroke="black" points="76.0074,-293.096 83.7276,-300.352 82.2173,-289.865 76.0074,-293.096"/>
</g>
<!-- 8 -->
<g id="node8" class="node"><title>8</title>
<ellipse fill="none" stroke="black" cx="87.0618" cy="-417.978" rx="27" ry="18"/>
<text text-anchor="middle" x="87.0618" y="-414.278" font-family="Times New Roman,serif" font-size="14.00">8</text>
</g>
<!-- 4&#45;&gt;8 -->
<g id="edge6" class="edge"><title>4&#45;&gt;8</title>
<path fill="none" stroke="black" d="M39.7376,-358.329C47.9395,-368.667 58.7521,-382.296 67.9713,-393.916"/>
<polygon fill="black" stroke="black" points="65.3854,-396.288 74.3426,-401.947 70.8692,-391.937 65.3854,-396.288"/>
</g>
<!-- 5 -->
<g id="node5" class="node"><title>5</title>
<ellipse fill="none" stroke="black" cx="466.978" cy="-50.5812" rx="27" ry="18"/>
<text text-anchor="middle" x="466.978" y="-46.8812" font-family="Times New Roman,serif" font-size="14.00">5</text>
</g>
<!-- 9 -->
<g id="node9" class="node"><title>9</title>
<ellipse fill="none" stroke="black" cx="486.558" cy="-142.451" rx="27" ry="18"/>
<text text-anchor="middle" x="486.558" y="-138.751" font-family="Times New Roman,serif" font-size="14.00">9</text>
</g>
<!-- 5&#45;&gt;9 -->
<g id="edge7" class="edge"><title>5&#45;&gt;9</title>
<path fill="none" stroke="black" d="M470.846,-68.7317C473.609,-81.692 477.378,-99.379 480.533,-114.18"/>
<polygon fill="black" stroke="black" points="477.19,-115.287 482.698,-124.338 484.037,-113.828 477.19,-115.287"/>
</g>
<!-- 19 -->
<g id="node19" class="node"><title>19</title>
<ellipse fill="none" stroke="black" cx="456.71" cy="-262.174" rx="27" ry="18"/>
<text text-anchor="middle" x="456.71" y="-258.474" font-family="Times New Roman,serif" font-size="14.00">19</text>
</g>
<!-- 6&#45;&gt;19 -->
<g id="edge8" class="edge"><title>6&#45;&gt;19</title>
<path fill="none" stroke="black" d="M365.692,-142.538C383.704,-166.214 417.457,-210.58 438.413,-238.124"/>
<polygon fill="black" stroke="black" points="435.633,-240.252 444.474,-246.091 441.204,-236.013 435.633,-240.252"/>
</g>
<!-- 12 -->
<g id="node12" class="node"><title>12</title>
<ellipse fill="none" stroke="black" cx="182.253" cy="-381.451" rx="27" ry="18"/>
<text text-anchor="middle" x="182.253" y="-377.751" font-family="Times New Roman,serif" font-size="14.00">12</text>
</g>
<!-- 7&#45;&gt;12 -->
<g id="edge9" class="edge"><title>7&#45;&gt;12</title>
<path fill="none" stroke="black" d="M111.215,-330.751C123.95,-339.84 141.052,-352.046 155.285,-362.204"/>
<polygon fill="black" stroke="black" points="153.538,-365.257 163.711,-368.217 157.605,-359.559 153.538,-365.257"/>
</g>
<!-- 8&#45;&gt;12 -->
<g id="edge10" class="edge"><title>8&#45;&gt;12</title>
<path fill="none" stroke="black" d="M110.592,-408.949C122.263,-404.471 136.552,-398.988 149.292,-394.099"/>
<polygon fill="black" stroke="black" points="150.581,-397.353 158.664,-390.503 148.073,-390.818 150.581,-397.353"/>
</g>
<!-- 9&#45;&gt;19 -->
<g id="edge11" class="edge"><title>9&#45;&gt;19</title>
<path fill="none" stroke="black" d="M482.09,-160.375C477.21,-179.947 469.333,-211.541 463.648,-234.344"/>
<polygon fill="black" stroke="black" points="460.232,-233.578 461.209,-244.128 467.024,-235.272 460.232,-233.578"/>
</g>
<!-- 10 -->
<g id="node10" class="node"><title>10</title>
<ellipse fill="none" stroke="black" cx="392" cy="-18" rx="27" ry="18"/>
<text text-anchor="middle" x="392" y="-14.3" font-family="Times New Roman,serif" font-size="14.00">10</text>
</g>
<!-- 10&#45;&gt;5 -->
<g id="edge12" class="edge"><title>10&#45;&gt;5</title>
<path fill="none" stroke="black" d="M414.903,-27.9525C421.153,-30.6683 428.044,-33.6627 434.71,-36.5594"/>
<polygon fill="black" stroke="black" points="433.648,-39.9143 444.215,-40.6897 436.438,-33.4942 433.648,-39.9143"/>
</g>
<!-- 10&#45;&gt;6 -->
<g id="edge13" class="edge"><title>10&#45;&gt;6</title>
<path fill="none" stroke="black" d="M385.633,-35.9057C379.512,-53.117 370.179,-79.3637 363.135,-99.172"/>
<polygon fill="black" stroke="black" points="359.742,-98.267 359.689,-108.862 366.338,-100.612 359.742,-98.267"/>
</g>
<!-- 11 -->
<g id="node11" class="node"><title>11</title>
<ellipse fill="none" stroke="black" cx="330.135" cy="-356.995" rx="27" ry="18"/>
<text text-anchor="middle" x="330.135" y="-353.295" font-family="Times New Roman,serif" font-size="14.00">11</text>
</g>
<!-- 16 -->
<g id="node16" class="node"><title>16</title>
<ellipse fill="none" stroke="black" cx="392.498" cy="-434.697" rx="27" ry="18"/>
<text text-anchor="middle" x="392.498" y="-430.997" font-family="Times New Roman,serif" font-size="14.00">16</text>
</g>
<!-- 11&#45;&gt;16 -->
<g id="edge14" class="edge"><title>11&#45;&gt;16</title>
<path fill="none" stroke="black" d="M343.057,-373.095C351.753,-383.93 363.375,-398.41 373.166,-410.609"/>
<polygon fill="black" stroke="black" points="370.604,-413.009 379.593,-418.617 376.063,-408.628 370.604,-413.009"/>
</g>
<!-- 11&#45;&gt;19 -->
<g id="edge15" class="edge"><title>11&#45;&gt;19</title>
<path fill="none" stroke="black" d="M348.27,-343.409C369.794,-327.285 405.857,-300.269 430.436,-281.857"/>
<polygon fill="black" stroke="black" points="432.703,-284.531 438.608,-275.735 428.506,-278.929 432.703,-284.531"/>
</g>
<!-- 12&#45;&gt;11 -->
<g id="edge16" class="edge"><title>12&#45;&gt;11</title>
<path fill="none" stroke="black" d="M208.692,-377.079C232.454,-373.149 267.569,-367.342 293.935,-362.982"/>
<polygon fill="black" stroke="black" points="294.631,-366.414 303.925,-361.329 293.488,-359.508 294.631,-366.414"/>
</g>
<!-- 13 -->
<g id="node13" class="node"><title>13</title>
<ellipse fill="none" stroke="black" cx="578.062" cy="-213.496" rx="27" ry="18"/>
<text text-anchor="middle" x="578.062" y="-209.796" font-family="Times New Roman,serif" font-size="14.00">13</text>
</g>
<!-- 14 -->
<g id="node14" class="node"><title>14</title>
<ellipse fill="none" stroke="black" cx="529.887" cy="-542.244" rx="27" ry="18"/>
<text text-anchor="middle" x="529.887" y="-538.544" font-family="Times New Roman,serif" font-size="14.00">14</text>
</g>
<!-- 15 -->
<g id="node15" class="node"><title>15</title>
<ellipse fill="none" stroke="black" cx="479.092" cy="-392.747" rx="27" ry="18"/>
<text text-anchor="middle" x="479.092" y="-389.047" font-family="Times New Roman,serif" font-size="14.00">15</text>
</g>
<!-- 15&#45;&gt;19 -->
<g id="edge17" class="edge"><title>15&#45;&gt;19</title>
<path fill="none" stroke="black" d="M475.979,-374.591C472.238,-352.763 465.916,-315.885 461.539,-290.348"/>
<polygon fill="black" stroke="black" points="464.934,-289.441 459.795,-280.176 458.035,-290.623 464.934,-289.441"/>
</g>
<!-- 16&#45;&gt;15 -->
<g id="edge18" class="edge"><title>16&#45;&gt;15</title>
<path fill="none" stroke="black" d="M414.349,-424.111C424.605,-419.143 437.008,-413.134 448.202,-407.711"/>
<polygon fill="black" stroke="black" points="449.774,-410.839 457.247,-403.329 446.722,-404.539 449.774,-410.839"/>
</g>
<!-- 17 -->
<g id="node17" class="node"><title>17</title>
<ellipse fill="none" stroke="black" cx="553.646" cy="-356.691" rx="27" ry="18"/>
<text text-anchor="middle" x="553.646" y="-352.991" font-family="Times New Roman,serif" font-size="14.00">17</text>
</g>
<!-- 17&#45;&gt;19 -->
<g id="edge19" class="edge"><title>17&#45;&gt;19</title>
<path fill="none" stroke="black" d="M538.072,-341.505C522.243,-326.072 497.553,-301.999 479.521,-284.416"/>
<polygon fill="black" stroke="black" points="481.849,-281.798 472.245,-277.322 476.962,-286.809 481.849,-281.798"/>
</g>
<!-- 18 -->
<g id="node18" class="node"><title>18</title>
<ellipse fill="none" stroke="black" cx="558.622" cy="-458.526" rx="27" ry="18"/>
<text text-anchor="middle" x="558.622" y="-454.826" font-family="Times New Roman,serif" font-size="14.00">18</text>
</g>
<!-- 18&#45;&gt;14 -->
<g id="edge22" class="edge"><title>18&#45;&gt;14</title>
<path fill="none" stroke="black" d="M552.528,-476.281C548.681,-487.491 543.632,-502.2 539.278,-514.883"/>
<polygon fill="black" stroke="black" points="535.909,-513.92 535.973,-524.515 542.529,-516.193 535.909,-513.92"/>
</g>
<!-- 18&#45;&gt;15 -->
<g id="edge21" class="edge"><title>18&#45;&gt;15</title>
<path fill="none" stroke="black" d="M541.365,-444.253C530.452,-435.227 516.167,-423.412 504.032,-413.375"/>
<polygon fill="black" stroke="black" points="505.978,-410.443 496.042,-406.766 501.517,-415.837 505.978,-410.443"/>
</g>
<!-- 18&#45;&gt;17 -->
<g id="edge20" class="edge"><title>18&#45;&gt;17</title>
<path fill="none" stroke="black" d="M557.733,-440.32C556.983,-424.97 555.896,-402.742 555.032,-385.059"/>
<polygon fill="black" stroke="black" points="558.512,-384.557 554.528,-374.739 551.52,-384.898 558.512,-384.557"/>
</g>
<!-- 19&#45;&gt;13 -->
<g id="edge23" class="edge"><title>19&#45;&gt;13</title>
<path fill="none" stroke="black" d="M480.107,-252.789C498.658,-245.347 524.799,-234.861 545.411,-226.593"/>
<polygon fill="black" stroke="black" points="546.757,-229.824 554.736,-222.853 544.151,-223.328 546.757,-229.824"/>
</g>
<!-- 20 -->
<g id="node20" class="node"><title>20</title>
<ellipse fill="none" stroke="black" cx="631.583" cy="-149.84" rx="27" ry="18"/>
<text text-anchor="middle" x="631.583" y="-146.14" font-family="Times New Roman,serif" font-size="14.00">20</text>
</g>
<!-- 20&#45;&gt;13 -->
<g id="edge24" class="edge"><title>20&#45;&gt;13</title>
<path fill="none" stroke="black" d="M618.353,-165.575C612.224,-172.865 604.809,-181.683 598.021,-189.758"/>
<polygon fill="black" stroke="black" points="595.268,-187.593 591.511,-197.5 600.626,-192.098 595.268,-187.593"/>
</g>
</g>
</svg>
