<?xml version="1.0" encoding="UTF-8" standalone="no"?>
<!DOCTYPE svg PUBLIC "-//W3C//DTD SVG 1.1//EN"
 "http://www.w3.org/Graphics/SVG/1.1/DTD/svg11.dtd">
<!-- Generated by graphviz version 2.38.0 (20140413.2041)
 -->
<!-- Title: %3 Pages: 1 -->
<svg width="1017pt" height="738pt"
 viewBox="0.00 0.00 1017.36 738.42" xmlns="http://www.w3.org/2000/svg" xmlns:xlink="http://www.w3.org/1999/xlink">
<g id="graph0" class="graph" transform="scale(1 1) rotate(0) translate(4 734.417)">
<title>%3</title>
<polygon fill="white" stroke="none" points="-4,4 -4,-734.417 1013.36,-734.417 1013.36,4 -4,4"/>
<!-- 0 -->
<g id="node1" class="node"><title>0</title>
<ellipse fill="lightblue" stroke="lightblue" cx="486" cy="-222" rx="27" ry="18"/>
<text text-anchor="middle" x="486" y="-218.3" font-family="Times New Roman,serif" font-size="14.00">0</text>
</g>
<!-- 25 -->
<g id="node2" class="node"><title>25</title>
<ellipse fill="none" stroke="black" cx="697.762" cy="-451.487" rx="27" ry="18"/>
<text text-anchor="middle" x="697.762" y="-447.787" font-family="Times New Roman,serif" font-size="14.00">25</text>
</g>
<!-- 22 -->
<g id="node3" class="node"><title>22</title>
<ellipse fill="none" stroke="black" cx="757.35" cy="-414.752" rx="27" ry="18"/>
<text text-anchor="middle" x="757.35" y="-411.052" font-family="Times New Roman,serif" font-size="14.00">22</text>
</g>
<!-- 25&#45;&gt;22 -->
<g id="edge1" class="edge"><title>25&#45;&gt;22</title>
<path fill="none" stroke="black" d="M717.604,-439.255C721.185,-437.048 724.981,-434.707 728.753,-432.382"/>
<polygon fill="black" stroke="black" points="730.716,-435.283 737.392,-427.056 727.043,-429.325 730.716,-435.283"/>
</g>
<!-- 37 -->
<g id="node4" class="node"><title>37</title>
<ellipse fill="none" stroke="black" cx="515.284" cy="-281.744" rx="27" ry="18"/>
<text text-anchor="middle" x="515.284" y="-278.044" font-family="Times New Roman,serif" font-size="14.00">37</text>
</g>
<!-- 43 -->
<g id="node5" class="node"><title>43</title>
<ellipse fill="none" stroke="black" cx="482.873" cy="-338.519" rx="27" ry="18"/>
<text text-anchor="middle" x="482.873" y="-334.819" font-family="Times New Roman,serif" font-size="14.00">43</text>
</g>
<!-- 37&#45;&gt;43 -->
<g id="edge2" class="edge"><title>37&#45;&gt;43</title>
<path fill="none" stroke="black" d="M505.56,-298.778C503.06,-303.157 500.314,-307.968 497.622,-312.683"/>
<polygon fill="black" stroke="black" points="494.509,-311.077 492.591,-321.497 500.588,-314.547 494.509,-311.077"/>
</g>
<!-- 47 -->
<g id="node6" class="node"><title>47</title>
<ellipse fill="none" stroke="black" cx="606.366" cy="-279.757" rx="27" ry="18"/>
<text text-anchor="middle" x="606.366" y="-276.057" font-family="Times New Roman,serif" font-size="14.00">47</text>
</g>
<!-- 43&#45;&gt;47 -->
<g id="edge3" class="edge"><title>43&#45;&gt;47</title>
<path fill="none" stroke="black" d="M504.951,-328.013C524.411,-318.754 552.986,-305.157 574.849,-294.753"/>
<polygon fill="black" stroke="black" points="576.537,-297.826 584.063,-290.369 573.529,-291.506 576.537,-297.826"/>
</g>
<!-- 11 -->
<g id="node11" class="node"><title>11</title>
<ellipse fill="none" stroke="black" cx="332.5" cy="-379.47" rx="27" ry="18"/>
<text text-anchor="middle" x="332.5" y="-375.77" font-family="Times New Roman,serif" font-size="14.00">11</text>
</g>
<!-- 43&#45;&gt;11 -->
<g id="edge18" class="edge"><title>43&#45;&gt;11</title>
<path fill="none" stroke="black" d="M457.704,-345.373C432.908,-352.126 394.828,-362.496 367.173,-370.027"/>
<polygon fill="black" stroke="black" points="366.23,-366.657 357.501,-372.662 368.069,-373.411 366.23,-366.657"/>
</g>
<!-- 15 -->
<g id="node31" class="node"><title>15</title>
<ellipse fill="none" stroke="black" cx="555.227" cy="-362.23" rx="27" ry="18"/>
<text text-anchor="middle" x="555.227" y="-358.53" font-family="Times New Roman,serif" font-size="14.00">15</text>
</g>
<!-- 43&#45;&gt;15 -->
<g id="edge25" class="edge"><title>43&#45;&gt;15</title>
<path fill="none" stroke="black" d="M507.369,-346.546C511.73,-347.975 516.345,-349.488 520.919,-350.987"/>
<polygon fill="black" stroke="black" points="520.164,-354.422 530.757,-354.211 522.344,-347.77 520.164,-354.422"/>
</g>
<!-- 31 -->
<g id="node7" class="node"><title>31</title>
<ellipse fill="none" stroke="black" cx="562.954" cy="-18" rx="27" ry="18"/>
<text text-anchor="middle" x="562.954" y="-14.3" font-family="Times New Roman,serif" font-size="14.00">31</text>
</g>
<!-- 5 -->
<g id="node8" class="node"><title>5</title>
<ellipse fill="none" stroke="black" cx="708.839" cy="-18" rx="27" ry="18"/>
<text text-anchor="middle" x="708.839" y="-14.3" font-family="Times New Roman,serif" font-size="14.00">5</text>
</g>
<!-- 31&#45;&gt;5 -->
<g id="edge4" class="edge"><title>31&#45;&gt;5</title>
<path fill="none" stroke="black" d="M590.052,-18C612.937,-18 645.948,-18 671.364,-18"/>
<polygon fill="black" stroke="black" points="671.391,-21.5001 681.391,-18 671.391,-14.5001 671.391,-21.5001"/>
</g>
<!-- 49 -->
<g id="node41" class="node"><title>49</title>
<ellipse fill="none" stroke="black" cx="854.545" cy="-18" rx="27" ry="18"/>
<text text-anchor="middle" x="854.545" y="-14.3" font-family="Times New Roman,serif" font-size="14.00">49</text>
</g>
<!-- 5&#45;&gt;49 -->
<g id="edge36" class="edge"><title>5&#45;&gt;49</title>
<path fill="none" stroke="black" d="M735.904,-18C758.761,-18 791.731,-18 817.117,-18"/>
<polygon fill="black" stroke="black" points="817.131,-21.5001 827.131,-18 817.131,-14.5001 817.131,-21.5001"/>
</g>
<!-- 34 -->
<g id="node9" class="node"><title>34</title>
<ellipse fill="none" stroke="black" cx="178.944" cy="-378.567" rx="27" ry="18"/>
<text text-anchor="middle" x="178.944" y="-374.867" font-family="Times New Roman,serif" font-size="14.00">34</text>
</g>
<!-- 50 -->
<g id="node10" class="node"><title>50</title>
<ellipse fill="none" stroke="black" cx="203.555" cy="-337.476" rx="27" ry="18"/>
<text text-anchor="middle" x="203.555" y="-333.776" font-family="Times New Roman,serif" font-size="14.00">50</text>
</g>
<!-- 34&#45;&gt;50 -->
<g id="edge5" class="edge"><title>34&#45;&gt;50</title>
<path fill="none" stroke="black" d="M189.239,-361.379C189.328,-361.23 189.417,-361.082 189.506,-360.933"/>
<polygon fill="black" stroke="black" points="191.403,-364.578 193.538,-354.201 185.397,-360.981 191.403,-364.578"/>
</g>
<!-- 34&#45;&gt;11 -->
<g id="edge48" class="edge"><title>34&#45;&gt;11</title>
<path fill="none" stroke="black" d="M206.044,-378.726C230.856,-378.872 267.799,-379.089 295.357,-379.252"/>
<polygon fill="black" stroke="black" points="295.393,-382.752 305.414,-379.311 295.435,-375.752 295.393,-382.752"/>
</g>
<!-- 38 -->
<g id="node37" class="node"><title>38</title>
<ellipse fill="none" stroke="black" cx="108.145" cy="-412.995" rx="27" ry="18"/>
<text text-anchor="middle" x="108.145" y="-409.295" font-family="Times New Roman,serif" font-size="14.00">38</text>
</g>
<!-- 34&#45;&gt;38 -->
<g id="edge33" class="edge"><title>34&#45;&gt;38</title>
<path fill="none" stroke="black" d="M156.931,-389.272C151.39,-391.966 145.336,-394.91 139.436,-397.779"/>
<polygon fill="black" stroke="black" points="137.851,-394.658 130.388,-402.179 140.912,-400.953 137.851,-394.658"/>
</g>
<!-- 23 -->
<g id="node13" class="node"><title>23</title>
<ellipse fill="none" stroke="black" cx="241.077" cy="-390.483" rx="27" ry="18"/>
<text text-anchor="middle" x="241.077" y="-386.783" font-family="Times New Roman,serif" font-size="14.00">23</text>
</g>
<!-- 50&#45;&gt;23 -->
<g id="edge12" class="edge"><title>50&#45;&gt;23</title>
<path fill="none" stroke="black" d="M215.222,-353.957C217.93,-357.783 220.869,-361.935 223.762,-366.022"/>
<polygon fill="black" stroke="black" points="220.912,-368.054 229.547,-374.194 226.626,-364.01 220.912,-368.054"/>
</g>
<!-- 40 -->
<g id="node12" class="node"><title>40</title>
<ellipse fill="none" stroke="black" cx="283.531" cy="-444.111" rx="27" ry="18"/>
<text text-anchor="middle" x="283.531" y="-440.411" font-family="Times New Roman,serif" font-size="14.00">40</text>
</g>
<!-- 11&#45;&gt;40 -->
<g id="edge6" class="edge"><title>11&#45;&gt;40</title>
<path fill="none" stroke="black" d="M320.143,-395.782C314.592,-403.11 307.927,-411.907 301.815,-419.976"/>
<polygon fill="black" stroke="black" points="298.963,-417.944 295.714,-428.028 304.543,-422.171 298.963,-417.944"/>
</g>
<!-- 39 -->
<g id="node14" class="node"><title>39</title>
<ellipse fill="none" stroke="black" cx="345.055" cy="-437.868" rx="27" ry="18"/>
<text text-anchor="middle" x="345.055" y="-434.168" font-family="Times New Roman,serif" font-size="14.00">39</text>
</g>
<!-- 11&#45;&gt;39 -->
<g id="edge42" class="edge"><title>11&#45;&gt;39</title>
<path fill="none" stroke="black" d="M336.335,-397.309C337.195,-401.308 338.127,-405.645 339.052,-409.945"/>
<polygon fill="black" stroke="black" points="335.633,-410.694 341.157,-419.735 342.477,-409.223 335.633,-410.694"/>
</g>
<!-- 36 -->
<g id="node26" class="node"><title>36</title>
<ellipse fill="none" stroke="black" cx="250.597" cy="-554.422" rx="27" ry="18"/>
<text text-anchor="middle" x="250.597" y="-550.722" font-family="Times New Roman,serif" font-size="14.00">36</text>
</g>
<!-- 40&#45;&gt;36 -->
<g id="edge19" class="edge"><title>40&#45;&gt;36</title>
<path fill="none" stroke="black" d="M278.24,-461.834C272.982,-479.444 264.847,-506.693 258.761,-527.078"/>
<polygon fill="black" stroke="black" points="255.383,-526.159 255.875,-536.742 262.09,-528.162 255.383,-526.159"/>
</g>
<!-- 23&#45;&gt;39 -->
<g id="edge7" class="edge"><title>23&#45;&gt;39</title>
<path fill="none" stroke="black" d="M263.383,-400.648C277.813,-407.224 296.83,-415.89 312.883,-423.206"/>
<polygon fill="black" stroke="black" points="311.876,-426.594 322.427,-427.556 314.779,-420.224 311.876,-426.594"/>
</g>
<!-- 7 -->
<g id="node15" class="node"><title>7</title>
<ellipse fill="none" stroke="black" cx="440.773" cy="-550.549" rx="27" ry="18"/>
<text text-anchor="middle" x="440.773" y="-546.849" font-family="Times New Roman,serif" font-size="14.00">7</text>
</g>
<!-- 39&#45;&gt;7 -->
<g id="edge8" class="edge"><title>39&#45;&gt;7</title>
<path fill="none" stroke="black" d="M358.364,-453.535C374.489,-472.518 401.817,-504.689 420.55,-526.742"/>
<polygon fill="black" stroke="black" points="418.127,-529.295 427.268,-534.651 423.462,-524.763 418.127,-529.295"/>
</g>
<!-- 42 -->
<g id="node20" class="node"><title>42</title>
<ellipse fill="none" stroke="black" cx="424.997" cy="-640.113" rx="27" ry="18"/>
<text text-anchor="middle" x="424.997" y="-636.413" font-family="Times New Roman,serif" font-size="14.00">42</text>
</g>
<!-- 7&#45;&gt;42 -->
<g id="edge13" class="edge"><title>7&#45;&gt;42</title>
<path fill="none" stroke="black" d="M437.58,-568.673C435.399,-581.056 432.465,-597.714 429.979,-611.829"/>
<polygon fill="black" stroke="black" points="426.472,-611.56 428.184,-622.015 433.366,-612.774 426.472,-611.56"/>
</g>
<!-- 44 -->
<g id="node36" class="node"><title>44</title>
<ellipse fill="none" stroke="black" cx="551.775" cy="-558.962" rx="27" ry="18"/>
<text text-anchor="middle" x="551.775" y="-555.262" font-family="Times New Roman,serif" font-size="14.00">44</text>
</g>
<!-- 7&#45;&gt;44 -->
<g id="edge32" class="edge"><title>7&#45;&gt;44</title>
<path fill="none" stroke="black" d="M467.643,-552.585C481.719,-553.652 499.178,-554.976 514.537,-556.14"/>
<polygon fill="black" stroke="black" points="514.531,-559.649 524.767,-556.915 515.061,-552.669 514.531,-559.649"/>
</g>
<!-- 1 -->
<g id="node16" class="node"><title>1</title>
<ellipse fill="none" stroke="black" cx="185.336" cy="-463.879" rx="27" ry="18"/>
<text text-anchor="middle" x="185.336" y="-460.179" font-family="Times New Roman,serif" font-size="14.00">1</text>
</g>
<!-- 1&#45;&gt;23 -->
<g id="edge9" class="edge"><title>1&#45;&gt;23</title>
<path fill="none" stroke="black" d="M197.707,-447.59C204.995,-437.993 214.358,-425.665 222.518,-414.921"/>
<polygon fill="black" stroke="black" points="225.48,-416.807 228.741,-406.726 219.906,-412.573 225.48,-416.807"/>
</g>
<!-- 2 -->
<g id="node17" class="node"><title>2</title>
<ellipse fill="none" stroke="black" cx="205.049" cy="-287.97" rx="27" ry="18"/>
<text text-anchor="middle" x="205.049" y="-284.27" font-family="Times New Roman,serif" font-size="14.00">2</text>
</g>
<!-- 2&#45;&gt;50 -->
<g id="edge26" class="edge"><title>2&#45;&gt;50</title>
<path fill="none" stroke="black" d="M204.501,-306.123C204.472,-307.065 204.444,-308.02 204.415,-308.983"/>
<polygon fill="black" stroke="black" points="200.906,-309.224 204.103,-319.325 207.903,-309.435 200.906,-309.224"/>
</g>
<!-- 2&#45;&gt;23 -->
<g id="edge10" class="edge"><title>2&#45;&gt;23</title>
<path fill="none" stroke="black" d="M211.324,-305.826C216.904,-321.702 225.145,-345.149 231.539,-363.344"/>
<polygon fill="black" stroke="black" points="228.256,-364.557 234.874,-372.831 234.86,-362.236 228.256,-364.557"/>
</g>
<!-- 48 -->
<g id="node18" class="node"><title>48</title>
<ellipse fill="none" stroke="black" cx="195.825" cy="-90.301" rx="27" ry="18"/>
<text text-anchor="middle" x="195.825" y="-86.601" font-family="Times New Roman,serif" font-size="14.00">48</text>
</g>
<!-- 26 -->
<g id="node19" class="node"><title>26</title>
<ellipse fill="none" stroke="black" cx="156.873" cy="-18" rx="27" ry="18"/>
<text text-anchor="middle" x="156.873" y="-14.3" font-family="Times New Roman,serif" font-size="14.00">26</text>
</g>
<!-- 48&#45;&gt;26 -->
<g id="edge11" class="edge"><title>48&#45;&gt;26</title>
<path fill="none" stroke="black" d="M186.594,-73.1666C181.888,-64.4326 176.068,-53.6282 170.828,-43.9026"/>
<polygon fill="black" stroke="black" points="173.862,-42.155 166.038,-35.0113 167.7,-45.4751 173.862,-42.155"/>
</g>
<!-- 18 -->
<g id="node21" class="node"><title>18</title>
<ellipse fill="none" stroke="black" cx="260.832" cy="-181.276" rx="27" ry="18"/>
<text text-anchor="middle" x="260.832" y="-177.576" font-family="Times New Roman,serif" font-size="14.00">18</text>
</g>
<!-- 48&#45;&gt;18 -->
<g id="edge14" class="edge"><title>48&#45;&gt;18</title>
<path fill="none" stroke="black" d="M207.447,-106.565C217.369,-120.451 231.793,-140.637 243.147,-156.527"/>
<polygon fill="black" stroke="black" points="240.43,-158.744 249.092,-164.846 246.125,-154.674 240.43,-158.744"/>
</g>
<!-- 17 -->
<g id="node29" class="node"><title>17</title>
<ellipse fill="none" stroke="black" cx="298.139" cy="-326.098" rx="27" ry="18"/>
<text text-anchor="middle" x="298.139" y="-322.398" font-family="Times New Roman,serif" font-size="14.00">17</text>
</g>
<!-- 18&#45;&gt;17 -->
<g id="edge22" class="edge"><title>18&#45;&gt;17</title>
<path fill="none" stroke="black" d="M265.407,-199.034C271.784,-223.789 283.409,-268.919 290.951,-298.194"/>
<polygon fill="black" stroke="black" points="287.643,-299.384 293.527,-308.195 294.422,-297.638 287.643,-299.384"/>
</g>
<!-- 24 -->
<g id="node22" class="node"><title>24</title>
<ellipse fill="none" stroke="black" cx="195.242" cy="-210.029" rx="27" ry="18"/>
<text text-anchor="middle" x="195.242" y="-206.329" font-family="Times New Roman,serif" font-size="14.00">24</text>
</g>
<!-- 24&#45;&gt;2 -->
<g id="edge44" class="edge"><title>24&#45;&gt;2</title>
<path fill="none" stroke="black" d="M197.517,-228.106C198.705,-237.55 200.185,-249.317 201.519,-259.914"/>
<polygon fill="black" stroke="black" points="198.065,-260.506 202.786,-269.991 205.011,-259.632 198.065,-260.506"/>
</g>
<!-- 24&#45;&gt;18 -->
<g id="edge15" class="edge"><title>24&#45;&gt;18</title>
<path fill="none" stroke="black" d="M217.814,-200.134C221.279,-198.615 224.913,-197.022 228.539,-195.432"/>
<polygon fill="black" stroke="black" points="230.242,-198.507 237.996,-191.287 227.432,-192.096 230.242,-198.507"/>
</g>
<!-- 9 -->
<g id="node23" class="node"><title>9</title>
<ellipse fill="none" stroke="black" cx="661.551" cy="-172.15" rx="27" ry="18"/>
<text text-anchor="middle" x="661.551" y="-168.45" font-family="Times New Roman,serif" font-size="14.00">9</text>
</g>
<!-- 9&#45;&gt;47 -->
<g id="edge30" class="edge"><title>9&#45;&gt;47</title>
<path fill="none" stroke="black" d="M652.685,-189.439C643.835,-206.696 630.119,-233.441 619.906,-253.355"/>
<polygon fill="black" stroke="black" points="616.66,-252.015 615.211,-262.511 622.888,-255.21 616.66,-252.015"/>
</g>
<!-- 8 -->
<g id="node24" class="node"><title>8</title>
<ellipse fill="none" stroke="black" cx="629.609" cy="-98.8785" rx="27" ry="18"/>
<text text-anchor="middle" x="629.609" y="-95.1785" font-family="Times New Roman,serif" font-size="14.00">8</text>
</g>
<!-- 9&#45;&gt;8 -->
<g id="edge16" class="edge"><title>9&#45;&gt;8</title>
<path fill="none" stroke="black" d="M653.981,-154.786C650.19,-146.089 645.516,-135.367 641.278,-125.647"/>
<polygon fill="black" stroke="black" points="644.44,-124.14 637.235,-116.372 638.023,-126.938 644.44,-124.14"/>
</g>
<!-- 19 -->
<g id="node30" class="node"><title>19</title>
<ellipse fill="none" stroke="black" cx="707.841" cy="-96.6564" rx="27" ry="18"/>
<text text-anchor="middle" x="707.841" y="-92.9564" font-family="Times New Roman,serif" font-size="14.00">19</text>
</g>
<!-- 9&#45;&gt;19 -->
<g id="edge24" class="edge"><title>9&#45;&gt;19</title>
<path fill="none" stroke="black" d="M671.824,-155.395C677.817,-145.622 685.498,-133.094 692.227,-122.121"/>
<polygon fill="black" stroke="black" points="695.353,-123.719 697.596,-113.364 689.385,-120.06 695.353,-123.719"/>
</g>
<!-- 30 -->
<g id="node43" class="node"><title>30</title>
<ellipse fill="none" stroke="black" cx="735.115" cy="-176.871" rx="27" ry="18"/>
<text text-anchor="middle" x="735.115" y="-173.171" font-family="Times New Roman,serif" font-size="14.00">30</text>
</g>
<!-- 9&#45;&gt;30 -->
<g id="edge41" class="edge"><title>9&#45;&gt;30</title>
<path fill="none" stroke="black" d="M688.526,-173.881C691.625,-174.08 694.823,-174.285 698.025,-174.491"/>
<polygon fill="black" stroke="black" points="697.94,-177.993 708.144,-175.14 698.389,-171.007 697.94,-177.993"/>
</g>
<!-- 21 -->
<g id="node25" class="node"><title>21</title>
<ellipse fill="none" stroke="black" cx="435" cy="-18" rx="27" ry="18"/>
<text text-anchor="middle" x="435" y="-14.3" font-family="Times New Roman,serif" font-size="14.00">21</text>
</g>
<!-- 21&#45;&gt;31 -->
<g id="edge17" class="edge"><title>21&#45;&gt;31</title>
<path fill="none" stroke="black" d="M462.136,-18C480.627,-18 505.346,-18 525.68,-18"/>
<polygon fill="black" stroke="black" points="525.858,-21.5001 535.857,-18 525.857,-14.5001 525.858,-21.5001"/>
</g>
<!-- 35 -->
<g id="node27" class="node"><title>35</title>
<ellipse fill="none" stroke="black" cx="496.329" cy="-412.579" rx="27" ry="18"/>
<text text-anchor="middle" x="496.329" y="-408.879" font-family="Times New Roman,serif" font-size="14.00">35</text>
</g>
<!-- 35&#45;&gt;43 -->
<g id="edge20" class="edge"><title>35&#45;&gt;43</title>
<path fill="none" stroke="black" d="M493.072,-394.651C491.546,-386.253 489.692,-376.05 487.986,-366.658"/>
<polygon fill="black" stroke="black" points="491.379,-365.752 486.147,-356.539 484.491,-367.003 491.379,-365.752"/>
</g>
<!-- 41 -->
<g id="node35" class="node"><title>41</title>
<ellipse fill="none" stroke="black" cx="450.214" cy="-385.038" rx="27" ry="18"/>
<text text-anchor="middle" x="450.214" y="-381.338" font-family="Times New Roman,serif" font-size="14.00">41</text>
</g>
<!-- 35&#45;&gt;41 -->
<g id="edge38" class="edge"><title>35&#45;&gt;41</title>
<path fill="none" stroke="black" d="M475.968,-400.419C475.854,-400.351 475.739,-400.282 475.624,-400.214"/>
<polygon fill="black" stroke="black" points="480.825,-399.243 470.445,-397.12 477.236,-405.253 480.825,-399.243"/>
</g>
<!-- 46 -->
<g id="node28" class="node"><title>46</title>
<ellipse fill="none" stroke="black" cx="485.297" cy="-621.295" rx="27" ry="18"/>
<text text-anchor="middle" x="485.297" y="-617.595" font-family="Times New Roman,serif" font-size="14.00">46</text>
</g>
<!-- 46&#45;&gt;7 -->
<g id="edge21" class="edge"><title>46&#45;&gt;7</title>
<path fill="none" stroke="black" d="M474.746,-604.529C469.367,-595.983 462.714,-585.411 456.724,-575.894"/>
<polygon fill="black" stroke="black" points="459.538,-573.793 451.249,-567.194 453.613,-577.522 459.538,-573.793"/>
</g>
<!-- 17&#45;&gt;40 -->
<g id="edge50" class="edge"><title>17&#45;&gt;40</title>
<path fill="none" stroke="black" d="M295.888,-344.279C293.522,-363.393 289.769,-393.716 287.019,-415.933"/>
<polygon fill="black" stroke="black" points="283.515,-415.749 285.76,-426.103 290.462,-416.609 283.515,-415.749"/>
</g>
<!-- 17&#45;&gt;39 -->
<g id="edge23" class="edge"><title>17&#45;&gt;39</title>
<path fill="none" stroke="black" d="M305.469,-343.562C313.078,-361.689 325.075,-390.269 333.869,-411.219"/>
<polygon fill="black" stroke="black" points="330.678,-412.66 337.776,-420.526 337.132,-409.951 330.678,-412.66"/>
</g>
<!-- 16 -->
<g id="node32" class="node"><title>16</title>
<ellipse fill="none" stroke="black" cx="229.586" cy="-643.698" rx="27" ry="18"/>
<text text-anchor="middle" x="229.586" y="-639.998" font-family="Times New Roman,serif" font-size="14.00">16</text>
</g>
<!-- 16&#45;&gt;36 -->
<g id="edge27" class="edge"><title>16&#45;&gt;36</title>
<path fill="none" stroke="black" d="M233.838,-625.631C236.771,-613.168 240.727,-596.358 244.059,-582.201"/>
<polygon fill="black" stroke="black" points="247.467,-582.997 246.352,-572.461 240.654,-581.394 247.467,-582.997"/>
</g>
<!-- 45 -->
<g id="node33" class="node"><title>45</title>
<ellipse fill="none" stroke="black" cx="671.674" cy="-358.789" rx="27" ry="18"/>
<text text-anchor="middle" x="671.674" y="-355.089" font-family="Times New Roman,serif" font-size="14.00">45</text>
</g>
<!-- 45&#45;&gt;25 -->
<g id="edge49" class="edge"><title>45&#45;&gt;25</title>
<path fill="none" stroke="black" d="M676.704,-376.662C680.457,-389.999 685.656,-408.472 689.949,-423.726"/>
<polygon fill="black" stroke="black" points="686.669,-424.991 692.748,-433.669 693.408,-423.094 686.669,-424.991"/>
</g>
<!-- 45&#45;&gt;47 -->
<g id="edge28" class="edge"><title>45&#45;&gt;47</title>
<path fill="none" stroke="black" d="M658.458,-342.796C649.163,-331.548 636.565,-316.302 626.086,-303.621"/>
<polygon fill="black" stroke="black" points="628.63,-301.205 619.562,-295.726 623.234,-305.664 628.63,-301.205"/>
</g>
<!-- 13 -->
<g id="node34" class="node"><title>13</title>
<ellipse fill="none" stroke="black" cx="324.438" cy="-132.225" rx="27" ry="18"/>
<text text-anchor="middle" x="324.438" y="-128.525" font-family="Times New Roman,serif" font-size="14.00">13</text>
</g>
<!-- 13&#45;&gt;18 -->
<g id="edge29" class="edge"><title>13&#45;&gt;18</title>
<path fill="none" stroke="black" d="M306.72,-145.889C300.62,-150.593 293.655,-155.965 287.025,-161.077"/>
<polygon fill="black" stroke="black" points="284.678,-158.467 278.897,-167.345 288.953,-164.01 284.678,-158.467"/>
</g>
<!-- 41&#45;&gt;43 -->
<g id="edge31" class="edge"><title>41&#45;&gt;43</title>
<path fill="none" stroke="black" d="M461.82,-368.506C462.976,-366.861 464.165,-365.166 465.363,-363.46"/>
<polygon fill="black" stroke="black" points="468.423,-365.193 471.304,-354.998 462.694,-361.171 468.423,-365.193"/>
</g>
<!-- 6 -->
<g id="node39" class="node"><title>6</title>
<ellipse fill="none" stroke="black" cx="649.753" cy="-538.758" rx="27" ry="18"/>
<text text-anchor="middle" x="649.753" y="-535.058" font-family="Times New Roman,serif" font-size="14.00">6</text>
</g>
<!-- 44&#45;&gt;6 -->
<g id="edge43" class="edge"><title>44&#45;&gt;6</title>
<path fill="none" stroke="black" d="M577.774,-553.601C588.736,-551.34 601.684,-548.67 613.555,-546.222"/>
<polygon fill="black" stroke="black" points="614.546,-549.592 623.633,-544.144 613.132,-542.736 614.546,-549.592"/>
</g>
<!-- 3 -->
<g id="node38" class="node"><title>3</title>
<ellipse fill="none" stroke="black" cx="80.3774" cy="-335.327" rx="27" ry="18"/>
<text text-anchor="middle" x="80.3774" y="-331.627" font-family="Times New Roman,serif" font-size="14.00">3</text>
</g>
<!-- 3&#45;&gt;34 -->
<g id="edge34" class="edge"><title>3&#45;&gt;34</title>
<path fill="none" stroke="black" d="M103.238,-345.355C116.176,-351.031 132.564,-358.22 146.781,-364.457"/>
<polygon fill="black" stroke="black" points="145.644,-367.78 156.207,-368.592 148.456,-361.37 145.644,-367.78"/>
</g>
<!-- 12 -->
<g id="node46" class="node"><title>12</title>
<ellipse fill="none" stroke="black" cx="27" cy="-282.775" rx="27" ry="18"/>
<text text-anchor="middle" x="27" y="-279.075" font-family="Times New Roman,serif" font-size="14.00">12</text>
</g>
<!-- 3&#45;&gt;12 -->
<g id="edge45" class="edge"><title>3&#45;&gt;12</title>
<path fill="none" stroke="black" d="M65.2243,-320.408C60.42,-315.678 54.9981,-310.34 49.78,-305.203"/>
<polygon fill="black" stroke="black" points="51.9578,-302.435 42.3763,-297.914 47.0468,-307.423 51.9578,-302.435"/>
</g>
<!-- 6&#45;&gt;25 -->
<g id="edge47" class="edge"><title>6&#45;&gt;25</title>
<path fill="none" stroke="black" d="M659.238,-521.516C666.187,-508.884 675.737,-491.525 683.59,-477.25"/>
<polygon fill="black" stroke="black" points="686.707,-478.845 688.46,-468.396 680.574,-475.471 686.707,-478.845"/>
</g>
<!-- 29 -->
<g id="node40" class="node"><title>29</title>
<ellipse fill="none" stroke="black" cx="678.946" cy="-605.066" rx="27" ry="18"/>
<text text-anchor="middle" x="678.946" y="-601.366" font-family="Times New Roman,serif" font-size="14.00">29</text>
</g>
<!-- 6&#45;&gt;29 -->
<g id="edge35" class="edge"><title>6&#45;&gt;29</title>
<path fill="none" stroke="black" d="M657.423,-556.18C660.35,-562.827 663.761,-570.574 666.992,-577.914"/>
<polygon fill="black" stroke="black" points="663.993,-579.788 671.226,-587.53 670.4,-576.968 663.993,-579.788"/>
</g>
<!-- 28 -->
<g id="node47" class="node"><title>28</title>
<ellipse fill="none" stroke="black" cx="982.359" cy="-18" rx="27" ry="18"/>
<text text-anchor="middle" x="982.359" y="-14.3" font-family="Times New Roman,serif" font-size="14.00">28</text>
</g>
<!-- 49&#45;&gt;28 -->
<g id="edge46" class="edge"><title>49&#45;&gt;28</title>
<path fill="none" stroke="black" d="M881.651,-18C900.122,-18 924.814,-18 945.126,-18"/>
<polygon fill="black" stroke="black" points="945.292,-21.5001 955.292,-18 945.292,-14.5001 945.292,-21.5001"/>
</g>
<!-- 32 -->
<g id="node42" class="node"><title>32</title>
<ellipse fill="none" stroke="black" cx="793.912" cy="-190.738" rx="27" ry="18"/>
<text text-anchor="middle" x="793.912" y="-187.038" font-family="Times New Roman,serif" font-size="14.00">32</text>
</g>
<!-- 32&#45;&gt;30 -->
<g id="edge37" class="edge"><title>32&#45;&gt;30</title>
<path fill="none" stroke="black" d="M768.294,-184.696C768.139,-184.66 767.984,-184.623 767.829,-184.587"/>
<polygon fill="black" stroke="black" points="771.366,-181.825 760.83,-182.936 769.759,-188.638 771.366,-181.825"/>
</g>
<!-- 4 -->
<g id="node44" class="node"><title>4</title>
<ellipse fill="none" stroke="black" cx="267.08" cy="-95.9923" rx="27" ry="18"/>
<text text-anchor="middle" x="267.08" y="-92.2923" font-family="Times New Roman,serif" font-size="14.00">4</text>
</g>
<!-- 4&#45;&gt;18 -->
<g id="edge39" class="edge"><title>4&#45;&gt;18</title>
<path fill="none" stroke="black" d="M265.755,-114.079C264.927,-125.386 263.843,-140.187 262.902,-153.019"/>
<polygon fill="black" stroke="black" points="259.395,-152.987 262.155,-163.216 266.377,-153.498 259.395,-152.987"/>
</g>
<!-- 10 -->
<g id="node45" class="node"><title>10</title>
<ellipse fill="none" stroke="black" cx="247.847" cy="-712.417" rx="27" ry="18"/>
<text text-anchor="middle" x="247.847" y="-708.717" font-family="Times New Roman,serif" font-size="14.00">10</text>
</g>
<!-- 10&#45;&gt;16 -->
<g id="edge40" class="edge"><title>10&#45;&gt;16</title>
<path fill="none" stroke="black" d="M243.049,-694.362C241.198,-687.394 239.037,-679.262 236.995,-671.578"/>
<polygon fill="black" stroke="black" points="240.366,-670.637 234.415,-661.871 233.601,-672.434 240.366,-670.637"/>
</g>
</g>
</svg>
